<svg width="2000" height="2000" viewBox="0 0 2000 2000" fill="none" xmlns="http://www.w3.org/2000/svg">
<g clip-path="url(#clip0_53_2)">
<path d="M634.855 1335.53L570.098 1397.84L516.602 1449.3L464.207 1499.69C489.586 1612.23 533.492 1718.73 600.617 1805.4C612.898 1821.28 625.793 1836.25 639.34 1850.25L683.41 1807.85L727.52 1765.41L904.613 1595.05L634.855 1335.53Z" fill="white"/>
<path d="M992.918 991.098L723.156 1250.62L992.918 1510.14L1262.68 1250.62L992.918 991.098Z" fill="white"/>
<path d="M1527.43 940.867C1491.56 802.211 1422.07 710.113 1348.5 649.031L1304.14 691.672L1259.09 735.047L1081.23 906.141L1350.99 1165.66L1338.5 1078L1394.5 1029L1435.5 950.5C1432.23 935.156 1531.18 955.434 1527.43 940.867Z" fill="white"/>
<path d="M498.078 1203.98L439.688 1147.79C434.996 1213.89 435.199 1282.89 441.36 1351.81L499.016 1296.36L546.555 1250.62L498.078 1203.98Z" fill="white"/>
<path d="M732.625 740.676L688.187 697.953L643.996 655.434C573.242 716.437 507.219 806.941 472.574 940.863C467.883 959.019 463.598 977.832 459.719 997.176L512.684 1048.14L567.16 1100.54L634.855 1165.66L904.617 906.141L732.625 740.676Z" fill="white"/>
<path d="M1210.16 1888.93L1163.2 1843.76L992.922 1679.96L827.375 1839.23L780.855 1883.99L735.234 1927.85C812.316 1975.43 901.68 2000 1000.02 2000C1094.69 2000 1180.99 1977.23 1256.03 1933.12L1210.16 1888.93Z" fill="white"/>
<path d="M1377.5 1474L1408.5 1408L1350.98 1335.54L1081.18 1595.05L1265.54 1772.43L1309.69 1814.87L1353.76 1857.27C1369.79 1841.27 1385.02 1823.97 1399.42 1805.4C1350.98 1698.5 1337 1557.5 1337 1557.5L1377.5 1474Z" fill="white"/>
<path d="M1410.84 192.094L1401.17 95.4258L1318.18 145.859C1247.48 188.781 1190.12 232.109 1146.16 275.645C1126.28 216.914 1094.24 152.359 1050.02 82.1758L998.23 0L946.445 82.1758C902.406 152.066 870.453 216.375 850.554 274.91C806.57 231.316 749.168 187.937 678.394 144.961L595.355 94.5273L585.726 191.195C569.648 352.09 585.398 473.363 632.488 553.137C646.363 576.68 662.968 596.633 682.312 612.914C685.086 615.238 687.863 617.445 690.636 619.605C711.324 635.191 733.113 645.352 754.332 651.637C775.797 658.004 796.648 660.41 815.09 660.41C818.64 660.41 822.109 660.328 825.453 660.125L842.347 676.367L992.918 821.226L1147 673.023L1160.3 660.168C1166.87 660.902 1173.96 661.309 1181.48 661.309C1200.78 661.309 1222.81 658.656 1245.42 651.516C1266.39 644.945 1287.86 634.5 1308.14 618.75C1310.18 617.16 1312.22 615.527 1314.26 613.812C1331.84 599 1347.19 581.168 1360.25 560.316C1410.31 480.668 1427.29 357.273 1410.84 192.094Z" fill="white"/>
</g>
<defs>
<clipPath id="clip0_53_2">
<rect width="2000" height="2000" fill="white"/>
</clipPath>
</defs>
</svg>
